<?xml version="1.0" encoding="UTF-8" standalone="no"?>
<!-- Created with Inkscape (http://www.inkscape.org/) -->

<svg width="500mm" height="100mm" viewBox="0 0 500 100" version="1.1" id="svg1" xml:space="preserve"
  inkscape:version="1.3.2 (091e20e, 2023-11-25, custom)" sodipodi:docname="althai-banner-curve.svg"
  xmlns:inkscape="http://www.inkscape.org/namespaces/inkscape"
  xmlns:sodipodi="http://sodipodi.sourceforge.net/DTD/sodipodi-0.dtd" xmlns:xlink="http://www.w3.org/1999/xlink"
  xmlns="http://www.w3.org/2000/svg" xmlns:svg="http://www.w3.org/2000/svg">
  <sodipodi:namedview id="namedview1" pagecolor="#ffffff" bordercolor="#000000" borderopacity="0.25"
    inkscape:showpageshadow="2" inkscape:pageopacity="0.0" inkscape:pagecheckerboard="true" inkscape:deskcolor="#d1d1d1"
    inkscape:document-units="mm" labelstyle="default" inkscape:zoom="0.48945419" inkscape:cx="842.77549"
    inkscape:cy="13.280099" inkscape:window-width="1920" inkscape:window-height="991" inkscape:window-x="-9"
    inkscape:window-y="-9" inkscape:window-maximized="1" inkscape:current-layer="layer-MC0">
    <inkscape:page x="0" y="0" width="500" height="100" id="page1" margin="0" bleed="0" />
    <inkscape:page x="510" y="0" width="297.00009" height="210.00015" id="page2" margin="10.61524 186.07066 10.616"
      bleed="0" />
  </sodipodi:namedview>
  <defs id="defs1">
    <linearGradient id="swatch1" inkscape:swatch="solid">
      <stop style="stop-color:#000000;stop-opacity:1;" offset="0" id="stop1" />
    </linearGradient>
    <linearGradient inkscape:collect="always" xlink:href="#swatch1" id="linearGradient1" x1="24.46332" y1="49.308882"
      x2="481.62161" y2="49.308882" gradientUnits="userSpaceOnUse"
      gradientTransform="matrix(2.8473021,0,0,3.7795276,-1760.2852,0)" />
    <clipPath clipPathUnits="userSpaceOnUse" id="clipPath10">
      <path d="M 0,595.276 H 841.89 V 0 H 0 Z" transform="translate(-314.65481,-391.09211)" id="path10" />
    </clipPath>
    <clipPath clipPathUnits="userSpaceOnUse" id="clipPath12">
      <path d="M 0,595.276 H 841.89 V 0 H 0 Z" transform="translate(-314.69791,-391.04141)" id="path12" />
    </clipPath>
    <clipPath clipPathUnits="userSpaceOnUse" id="clipPath14">
      <path d="M 0,595.276 H 841.89 V 0 H 0 Z" transform="translate(-403.03961,-173.5724)" id="path14" />
    </clipPath>
    <clipPath clipPathUnits="userSpaceOnUse" id="clipPath16">
      <path d="M 0,595.276 H 841.89 V 0 H 0 Z" transform="translate(-433.86711,-173.5724)" id="path16" />
    </clipPath>
    <clipPath clipPathUnits="userSpaceOnUse" id="clipPath18">
      <path d="M 0,595.276 H 841.89 V 0 H 0 Z" transform="translate(-454.07311,-268.4798)" id="path18" />
    </clipPath>
    <clipPath clipPathUnits="userSpaceOnUse" id="clipPath20">
      <path d="M 0,595.276 H 841.89 V 0 H 0 Z" transform="translate(-454.07311,-268.4798)" id="path20" />
    </clipPath>
    <clipPath clipPathUnits="userSpaceOnUse" id="clipPath22">
      <path d="M 0,595.276 H 841.89 V 0 H 0 Z" transform="translate(-356.39311,-525.83761)" id="path22" />
    </clipPath>
    <clipPath clipPathUnits="userSpaceOnUse" id="clipPath24">
      <path d="M 0,595.276 H 841.89 V 0 H 0 Z" transform="translate(-423.82071,-419.09591)" id="path24" />
    </clipPath>
    <clipPath clipPathUnits="userSpaceOnUse" id="clipPath26">
      <path d="M 0,595.276 H 841.89 V 0 H 0 Z" transform="translate(-380.07441,-289.8653)" id="path26" />
    </clipPath>
    <clipPath clipPathUnits="userSpaceOnUse" id="clipPath28">
      <path d="M 0,595.276 H 841.89 V 0 H 0 Z" transform="translate(-438.19721,-332.58831)" id="path28" />
    </clipPath>
  </defs>
  <g inkscape:label="Layer 1" inkscape:groupmode="layer" id="layer1" />
  <g id="layer-MC0" inkscape:groupmode="layer" inkscape:label="Layer 1"
    transform="matrix(0.26458334,0,0,0.26458333,510,0)">
    <g id="g4">
      <rect
        style="fill:url(#linearGradient1);stroke:#b34c4c;stroke-width:0;stroke-linecap:round;stroke-linejoin:round;stroke-miterlimit:13.6;stroke-opacity:0.858156;paint-order:fill markers stroke"
        id="rect1" width="1301.6678" height="245.59634" x="-1690.6307" y="63.566109" ry="122.79817" />
      <g id="g1">
        <g id="g2" transform="matrix(0.98898451,0,0,1.122476,-82.457134,8.1977798)">
          <g id="g3" transform="translate(-12.39509)">
            <path id="path9"
              d="m 0,0 c -9.148,-11.54 -22.289,-28.943 -30.233,-50.058 -17.107,-45.47 -12.242,-85.054 -7.8,-104.237 4.044,-19.523 13.794,-37.667 23.577,-50.248 0.063,-0.082 0.128,-0.164 0.192,-0.246 13.801,-17.651 28.879,-28.429 38.853,-34.464 11.698,-6.847 34.039,-16.558 61.255,-20.063 32.037,-4.125 57.7,2.671 71.123,7.274 11.536,4.4 27.908,12.179 44.567,25.978 19.943,16.519 31.649,34.502 38.044,46.242 3.654,7.095 7.169,15.721 9.527,25.805 8.122,34.762 -2.765,64.413 -8.662,77.588 l -79.519,195.925 c -1.287,3.172 -1.801,6.619 -1.393,10.019 0.38,3.159 0.96,6.579 1.823,10.195 0.939,3.94 2.065,7.49 3.234,10.623 -1.219,-0.648 -3.491,-2.064 -5.369,-4.734 -2.08,-2.958 -2.569,-5.884 -2.712,-7.274 0.136,-1.757 0.136,-4.421 -0.695,-7.505 -1.059,-3.87 -3.346,-7.292 -6.517,-9.75 l -0.737,-0.571 c -7.433,-5.761 -10.065,-15.799 -6.415,-24.466 l 74.415,-176.697 c 6.533,-15.512 9.111,-32.472 6.988,-49.17 -1.055,-8.304 -3.175,-17.443 -7.003,-26.954 -9.167,-22.776 -23.737,-36.779 -31.519,-43.297 -8.746,-8.411 -24.039,-21.004 -46.298,-29.904 -25.242,-10.093 -47.585,-10.697 -60.214,-10.103 -11.249,1 -35.214,4.686 -59.172,21.649 -0.834,0.59 -1.654,1.187 -2.459,1.789 -26.335,19.675 -42.634,49.908 -46.03,82.606 -2.425,23.354 -2.045,54.194 8.489,87.89 5.766,18.445 13.353,33.838 20.703,46.107"
              style="fill:#ed1c24;fill-opacity:1;fill-rule:nonzero;stroke:none"
              transform="matrix(0.47081072,0,0,-0.45183982,-1498.3387,136.8384)" clip-path="url(#clipPath10)" />
            <path id="path11" d="M 0,0 C 3.882,4.781 7.763,9.561 11.645,14.342"
              style="fill:#ed1c24;fill-opacity:1;fill-rule:nonzero;stroke:none"
              transform="matrix(0.47081072,0,0,-0.45183982,-1498.3184,136.8613)" clip-path="url(#clipPath12)" />
            <path id="path13"
              d="m 0,0 c 0,-7.461 -6.048,-13.509 -13.509,-13.509 -7.46,0 -13.508,6.048 -13.508,13.509 0,7.461 6.048,13.509 13.508,13.509 C -6.048,13.509 0,7.461 0,0"
              style="fill:#ed1c24;fill-opacity:1;fill-rule:nonzero;stroke:none"
              transform="matrix(0.47081072,0,0,-0.45183982,-1456.7262,235.12246)" clip-path="url(#clipPath14)" />
            <path id="path15"
              d="m 0,0 c 0,-7.461 -6.048,-13.509 -13.509,-13.509 -7.46,0 -13.508,6.048 -13.508,13.509 0,7.461 6.048,13.509 13.508,13.509 C -6.048,13.509 0,7.461 0,0"
              style="fill:#ed1c24;fill-opacity:1;fill-rule:nonzero;stroke:none"
              transform="matrix(0.47081072,0,0,-0.45183982,-1442.2123,235.12246)" clip-path="url(#clipPath16)" />
            <path id="path17"
              d="m 0,0 c -3.227,-8.094 -8.316,-18.487 -16.396,-29.327 -6.661,-8.937 -13.552,-15.761 -19.398,-20.782 -4.142,-3.503 -12.936,-9.955 -25.862,-12.47 -0.565,-0.11 -1.124,-0.209 -1.677,-0.3 -12.574,-2.05 -25.429,1.123 -35.946,8.314 -3.184,2.177 -6.493,4.856 -9.715,8.15 -9.656,9.875 -13.755,20.395 -15.471,25.863 -3.989,10.94 -8.125,25.579 -9.929,43.182 -2.13,20.782 -0.264,38.399 2.077,51.033 2.346,10.074 6.752,24.021 15.471,39.025 9.666,16.63 20.901,28.145 29.097,35.33 8.82,7.862 18.212,17.055 27.71,27.711 7.809,8.761 14.625,17.315 20.551,25.4 2.151,2.678 5.273,7.352 6.696,13.856 1.107,5.057 0.863,9.741 0.041,13.75 -1.229,5.998 -4.113,11.523 -8.09,16.178 -5.394,6.316 -11,13.655 -16.428,22.086 -3.532,5.484 -6.587,10.81 -9.237,15.875 0.098,0.984 0.144,2.143 0.058,3.435 -0.113,1.693 -0.42,3.146 -0.75,4.301 -0.439,0.131 -0.997,0.349 -1.586,0.722 -0.954,0.603 -1.546,1.334 -1.876,1.818 0.476,-1.932 0.896,-4.543 0.75,-7.62 -0.085,-1.757 -0.335,-3.316 -0.639,-4.633 -1.225,-1.596 -2.279,-2.97 -3.504,-4.566 -8.784,-4.45 -10.972,-15.283 -5.476,-22.49 0.708,-0.928 1.487,-1.858 2.344,-2.776 2.03,-2.174 4.093,-3.852 5.947,-5.138 7.236,-4.879 20.438,-15.512 24.015,-32.444 v 0 c 0.716,-3.389 -0.422,-6.901 -2.998,-9.217 -4.946,-4.446 -11.591,-10.308 -19.517,-16.992 -23.085,-19.469 -32.372,-25.117 -46.875,-39.025 -3.133,-3.004 -6.911,-6.779 -11.117,-11.346 -20.474,-22.227 -34.239,-49.971 -38.563,-79.88 -0.154,-1.063 -0.297,-2.136 -0.43,-3.219 -2.025,-16.504 -1.006,-30.839 0.692,-41.796 1.285,-10.342 5.521,-32.788 22.515,-54.497 8.37,-10.69 17.514,-18.239 25.298,-23.451 11.104,-7.433 24.002,-11.922 37.361,-12.23 4.238,-0.097 8.819,0.186 13.659,1.043 20.869,3.7 33.731,15.82 37.986,20.206 7.099,7.2 16.832,19.025 23.438,35.908 C -2.76,-13.309 -1.016,-6.139 0,0"
              style="fill:#ed1c24;fill-opacity:1;fill-rule:nonzero;stroke:none"
              transform="matrix(0.47081072,0,0,-0.45183982,-1432.6991,192.23952)" clip-path="url(#clipPath18)" />
            <path id="path19"
              d="m 0,0 c 1.819,-3.343 5.084,-11.197 6.349,-17.55 1.333,-6.692 1.098,-12.4 0.635,-16.28 -0.783,-5.615 -1.234,-12.181 -0.865,-19.483 0.163,-3.222 0.468,-6.259 0.865,-9.093 0.163,-0.453 0.851,-2.205 2.773,-3.29 1.868,-1.056 3.67,-0.782 4.154,-0.693 0.889,0.242 2.26,0.741 3.637,1.819 2.109,1.65 3.005,3.698 3.35,4.647 0.831,2.733 1.615,6.097 2.02,9.987 0.512,4.922 0.266,9.201 -0.173,12.527 2.2,-1.833 5.245,-4.826 7.792,-9.237 1.771,-3.065 2.794,-5.938 3.407,-8.197 0.216,-2.969 0.228,-8.927 -2.887,-15.356 -1.859,-3.838 -4.212,-6.566 -6.002,-8.313 -1.395,-1.384 -4.588,-4.183 -9.584,-5.542 -5.403,-1.47 -9.893,-0.435 -11.776,0.115 -1.86,0.649 -5.312,2.134 -8.487,5.427 -3.726,3.866 -5.02,8.098 -5.484,10.045 -0.607,2.347 -1.139,5.413 -1.098,9.006 0.074,6.363 1.912,11.354 3.292,14.316 1.867,4.528 3.678,9.697 5.195,15.472 C -0.23,-19.554 -0.261,-7.517 0,0"
              style="fill:#ed1c24;fill-opacity:1;fill-rule:nonzero;stroke:none"
              transform="matrix(0.47081072,0,0,-0.45183982,-1432.6991,192.23952)" clip-path="url(#clipPath20)" />
            <path id="path21"
              d="m 0,0 c 0.362,-3.418 0.489,-8.196 -0.575,-13.74 -1.315,-6.863 -3.915,-12.078 -5.889,-15.356 -1.325,-3.033 -3.496,-9.206 -2.425,-16.857 0.28,-2 0.74,-3.797 1.265,-5.369 1.1,-3.281 3.819,-5.92 7.231,-6.497 0.055,-0.009 0.108,-0.017 0.163,-0.026 2.846,-0.432 5.063,0.518 5.889,0.924 1.503,1.491 3.125,3.29 4.732,5.426 2.054,2.727 3.59,5.345 4.735,7.621 0.172,0.13 1.097,0.793 1.862,0.721 0.867,-0.081 1.274,-0.966 1.603,-1.876 0.21,-3.865 0.158,-8.456 -0.52,-13.566 -0.432,-3.252 -1.047,-6.207 -1.733,-8.833 -0.771,-1.705 -1.516,-6.576 -1.327,-10.622 0.115,-2.442 0.275,-2.742 0.807,-4.157 0.94,1.164 2.02,2.737 2.945,4.734 1.387,2.999 1.857,5.737 2.02,7.62 1.131,5.271 2.108,11.311 2.657,18.012 0.597,7.279 0.565,13.884 0.23,19.628 0.077,0.671 0.244,2.888 -1.155,5.08 -1.773,2.776 -4.689,3.37 -5.194,3.464 -1.824,-1.032 -4.062,-2.517 -6.352,-4.618 -2.458,-2.257 -4.215,-4.524 -5.427,-6.35 0.565,2.107 1.066,4.504 1.387,7.158 0.623,5.153 0.372,9.668 -0.115,13.22 -0.026,2.428 -0.45,8.138 -4.619,12.412 C 1.481,-1.116 0.738,-0.508 0,0"
              style="fill:#ed1c24;fill-opacity:1;fill-rule:nonzero;stroke:none"
              transform="matrix(0.47081072,0,0,-0.45183982,-1478.6879,75.955012)" clip-path="url(#clipPath22)" />
            <path id="path23"
              d="m 0,0 c 5.425,1.605 6.745,9.901 6.843,10.565 0.311,1.002 0.757,2.607 1.066,4.618 0.911,5.918 -0.369,8.771 0.233,13.913 0.21,1.815 0.726,4.488 2.134,7.678 1.174,-7.792 2.229,-15.919 3.118,-24.362 0.649,-6.161 1.178,-12.173 1.603,-18.026 0.167,-2.328 -0.425,-4.588 -1.666,-6.566 -3.687,-5.883 -7.434,-12.388 -11.079,-19.513 -3.472,-6.789 -6.428,-13.314 -8.951,-19.461 -0.412,-1.005 -0.647,-2.06 -0.604,-3.145 0.057,-1.423 -0.158,-3.665 -1.816,-4.989 -0.355,-0.284 -0.877,-0.606 -1.617,-0.808 -1.014,-0.047 -2.202,-0.033 -3.523,0.115 -1.447,0.162 -2.709,0.447 -3.752,0.751 -0.5,0.25 -1.248,0.55 -2.194,0.692 -1.124,0.169 -2.061,0.042 -2.655,-0.086 -0.537,0.054 -1.205,0.071 -1.963,-0.029 -1.257,-0.165 -2.242,-0.584 -2.887,-0.924 0.578,0.578 1.433,1.314 2.598,1.963 1.126,0.627 2.166,0.965 2.944,1.155 8.238,15.067 16.473,30.134 24.71,45.202 -0.982,-0.588 -4.356,-2.442 -8.891,-1.848 -0.671,0.088 -1.304,0.221 -1.896,0.387 -4.475,1.249 -7.698,5.009 -9.251,9.389 -0.419,1.184 -0.769,2.508 -0.977,3.964 -1.028,7.145 2.012,12.581 3.002,14.202 1.131,2.147 2.271,4.535 3.35,7.158 0.448,1.085 0.857,2.149 1.238,3.19 1.531,4.199 2.059,8.738 1.388,13.157 -0.23,1.51 -0.559,3.111 -1.011,4.782 -0.959,3.533 -2.238,6.466 -3.434,8.746 1.121,-0.142 3.156,-0.559 5.195,-1.992 3.325,-2.336 4.329,-5.736 4.59,-6.754 C -3.728,39.575 -3.51,35.16 -3.982,30.135 -4.191,27.922 -4.504,25.862 -4.881,23.97 -5.702,19.823 -6.134,15.592 -5.645,11.392 -5.123,6.914 -3.891,3.244 -2.425,0.26 -2.243,0.126 -1.902,-0.086 -1.428,-0.173 -0.75,-0.297 -0.211,-0.093 0,0"
              style="fill:#ed1c24;fill-opacity:1;fill-rule:nonzero;stroke:none"
              transform="matrix(0.47081072,0,0,-0.45183982,-1446.9423,124.18516)" clip-path="url(#clipPath24)" />
            <path id="path25"
              d="m 0,0 c -0.53,1.651 -0.853,3.35 -1.427,4.986 l -21.329,60.915 c -0.71,3.914 -1.369,7.957 -1.963,12.123 -0.966,6.769 -1.682,13.285 -2.194,19.513 -1.213,0.577 -2.425,1.155 -3.637,1.732 l 0.692,-13.682 -11.764,-19.738 c -2.423,-4.065 -2.923,-8.994 -1.366,-13.464 L -25.144,1.148 c 4.025,-11.556 11.879,-21.44 22.362,-27.751 1.567,-0.943 2.54,-1.422 2.54,-1.422 10.152,-4.878 19.224,-4.847 24.613,-4.767 8.154,0.12 14.767,1.828 19.146,3.309 -3.537,-0.808 -13.548,-3.211 -22.632,2.555 -2.722,1.728 -5.053,3.502 -7.014,5.167 -2.684,2.464 -6.093,6.128 -9.118,11.187 C 2.408,-6.652 0.94,-2.972 0,0"
              style="fill:#ed1c24;fill-opacity:1;fill-rule:nonzero;stroke:none"
              transform="matrix(0.47081072,0,0,-0.45183982,-1467.5385,182.5767)" clip-path="url(#clipPath26)" />
            <path id="path27"
              d="m 0,0 c -8.161,-12.525 -10.986,-25.33 -11.951,-34.724 -1.519,-9.124 -1.869,-17.262 -1.73,-23.958 3.829,2.481 7.923,5.617 11.949,9.583 14.534,14.319 19.812,31.244 21.909,40.786 1.14,5.017 0.726,8.961 0.258,11.344 -0.737,3.77 -1.854,4.915 -2.367,5.368 C 15.449,10.712 11.601,9.96 10.794,9.785 8.951,9.105 6.924,8.118 4.907,6.668 3.239,4.651 1.586,2.434 0,0 m 11.948,171.543 c 1.675,-5.542 0.173,-8.407 -0.258,-9.352 -0.707,-0.992 -1.668,-2.585 -2.281,-4.734 -0.578,-2.024 -0.633,-3.781 -0.578,-4.965 26.555,-62.809 53.112,-125.619 79.667,-188.429 1.838,-4.021 3.903,-9.958 4.272,-17.319 0.137,-2.699 0.024,-5.175 -0.218,-7.373 -0.045,-0.408 -0.1,-0.764 -0.184,-1.165 -0.786,-3.773 -2.765,-10.588 -8.142,-17.324 -5.405,-6.773 -11.623,-10.182 -14.951,-11.719 -3.036,-1.231 -10.2,-3.654 -19.226,-2.136 -7.544,1.269 -12.825,4.692 -15.413,6.639 -3.752,3.089 -9.066,8.196 -13.681,15.76 -4.665,7.648 -6.774,14.792 -7.794,19.57 -1.198,-2.329 -3.101,-5.409 -6.062,-8.486 -3.695,-3.841 -7.524,-6.104 -10.159,-7.389 -7.416,-3.618 -15.15,-8.358 -24.65,-6.813 -3.57,0.581 -6.316,1.826 -7.941,2.684 -0.73,0.374 -1.871,1.076 -2.913,2.31 -0.793,0.94 -1.258,1.866 -1.531,2.54 -13.013,36.076 -26.025,72.153 -39.038,108.229 -1.651,4.576 -0.086,9.693 3.841,12.563 2.604,1.903 5.206,3.805 7.811,5.708 1.456,1.065 2.664,2.445 3.411,4.088 0.523,1.145 1.021,2.444 1.433,3.893 1.215,4.26 1.16,7.97 0.923,10.391 0.551,-0.253 1.979,-1.001 2.887,-2.655 1.411,-2.572 0.379,-5.181 0.23,-5.542 -0.764,-2.156 -1.574,-5.36 -1.385,-9.237 0.077,-1.556 0.3,-2.952 0.577,-4.157 2.792,-11.729 6.35,-24.353 10.912,-37.639 6.436,-18.741 13.674,-35.337 20.869,-49.707 0.175,-0.351 0.323,-0.681 0.462,-1.048 2.087,-5.524 4.167,-12.79 4.994,-21.465 0.477,-5.011 0.445,-9.562 0.172,-13.509 0.841,1.904 1.67,4.225 2.252,6.928 1.206,5.598 0.834,10.428 0.288,13.682 -0.657,5.149 -1.181,10.643 -1.5,16.453 -0.223,4.04 -0.331,7.935 -0.345,11.67 -0.002,0.347 0.007,0.662 0.031,1.009 0.357,5.074 1.423,12.019 4.469,19.707 2.218,5.603 4.895,10.108 7.274,13.509 1.716,2.626 5.631,7.844 12.644,11.603 5.007,2.685 9.727,3.625 13.039,3.947 1.782,0.174 3.536,-0.137 5.187,-0.832 3.989,-1.679 10.935,-5.582 13.813,-13.333 1.042,-2.807 1.308,-5.458 1.27,-7.62 0.39,-10.306 -0.781,-25.476 -9.237,-40.353 -0.515,-0.906 -1.042,-1.785 -1.579,-2.637 -1.871,-2.969 -2.094,-6.626 -0.783,-9.881 1.423,-3.54 3.357,-7.484 5.999,-11.555 2.775,-4.275 5.698,-7.711 8.315,-10.391 0.795,-1.001 5.158,-6.291 12.641,-6.928 4.938,-0.421 8.697,1.402 10.219,2.251 1.327,0.658 6.201,3.274 8.659,9.179 3.043,7.308 -0.022,13.872 -0.52,14.895 L -5.058,126.361 c -4.922,11.212 -1.968,24.323 7.291,32.339 l 1.229,1.066 c 1.202,0.988 2.743,2.487 4.099,4.619 2.298,3.614 2.849,7.138 3.002,9.063 0.638,-0.66 1.194,-1.273 1.385,-1.905"
              style="fill:#ed1c24;fill-opacity:1;fill-rule:nonzero;stroke:none"
              transform="matrix(0.47081072,0,0,-0.45183982,-1440.1736,163.27274)" clip-path="url(#clipPath28)" />
          </g>
        </g><text xml:space="preserve"
          style="font-style:normal;font-variant:normal;font-weight:normal;font-stretch:normal;font-size:259.424px;font-family:Gabriola;-inkscape-font-specification:'Gabriola, Normal';font-variant-ligatures:normal;font-variant-caps:normal;font-variant-numeric:normal;font-variant-east-asian:normal;fill:#ffffff;stroke:#b34c4c;stroke-width:0;stroke-linecap:round;stroke-linejoin:round;stroke-miterlimit:13.6;stroke-opacity:0.858156;paint-order:fill markers stroke"
          x="-1468.7834" y="259.22931" id="text2" transform="scale(0.98504147,1.0151857)">
          <tspan sodipodi:role="line" id="tspan2" x="-1468.7834" y="259.22931" style="stroke-width:0">AlThaiFoods
          </tspan>
        </text>
      </g>
    </g>
  </g>
</svg>
